<svg width="384" height="384" viewBox="0 0 384 384" fill="none" xmlns="http://www.w3.org/2000/svg">
<path d="M317.7 161.9C317.7 64.3 265.2 31.1 216.1 23.7C216.1 23.2 216.2 22.7 216.2 22.1C216.2 9.8 205.3 0 192 0C178.7 0 168.2 9.8 168.2 22.1C168.2 22.7 168.2 23.2 168.3 23.7C119.1 31.2 66.3 64.5 66.3 162.1C66.3 275.9 38 288.1 0 320.1H384C346.2 288 317.7 275.7 317.7 161.9Z" fill="#E10C79"/>
<path d="M192.2 384C219 384 241 364.1 243.9 341H140.5C143.3 364.1 165.4 384 192.2 384Z" fill="#E10C79"/>
</svg>
